@startuml
scale 350 width

[*] --> NotShooting

state NotShooting {
    [*] --> Idle
    Idle --> Configuring : EvConfig
    Configuring --> Idle : EvConfig

    state Configuring {
        [*] --> NewValueSelection
        NewValueSelection --> NewValuePreview : EvNewValue
        NewValuePreview --> NewValueSelection : EvNewValueRejected
        NewValueSelection <-- NewValuePreview : EvNewValueSaved

        state NewValuePreview {
            State1 -> State2
        }
    }
}
@enduml