@startuml
[*] -> State1
State1 --> State2 : Succeeded
State1 --> [*] : Aborted
State2 --> [*] : Aborted

State2 --> State3 : Succeeded
State3 --> State2 : Pause

state State3 {
    state "Accumulate Enough Data" as long1
    [*] --> long1
    long1 : Just a test
    long1 : another test
    long1 --> ProcessData : Enough Data
    long1 --> long1 : New Data
    State2 --> [H] : Resume
    ' State2 --> [H*] : DeepResume
}

State3 --> State3 : Failed
State3 --> [*] : Succeeded / Save Result
State3 --> [*] : Aborted
State2 --> State3[H*] : DeepResume
' State1[H*] --> State3 : fromResume

@enduml